<svg width="135" height="76" viewBox="0 0 135 76" fill="none" xmlns="http://www.w3.org/2000/svg">
<path d="M131.101 39.6411C129.968 43.1662 127.8 46.1638 123.058 51.3976L120.247 54.4851C119.163 55.6842 118.594 56.3736 118.03 57.135C115.608 60.4384 105.753 65.5822 97.9825 68.4479C95.5166 69.3151 92.9794 69.969 90.3993 70.4023L86.626 71.0618L76.9351 72.7105C71.4355 73.6937 66.4568 73.5798 58.5648 72.6266L50.8787 71.6553C50.1277 71.5714 49.6068 71.5294 48.8739 71.4695H48.6741C44.9855 71.1877 42.1509 70.3244 37.469 68.298L34.059 66.8052C32.6235 66.2057 31.4303 65.7261 30.2735 65.3544L29.6678 65.1745C23.8715 63.4359 11.8124 54.605 8.10562 49.5271L7.65742 48.8916C5.71924 46.0619 4.42309 44.0955 3.1875 40.0487V38.3701L3.79318 36.4217C4.9682 33.0584 7.02145 30.1387 11.3884 25.2286L14.9922 21.2359C15.9128 20.1987 16.4277 19.5692 16.9425 18.8378C19.3652 15.5224 29.2196 10.3546 36.9844 7.48291C39.194 6.70021 41.4649 6.09867 43.7741 5.68435L45.8516 5.29467L58.0257 3.23232C63.7555 2.20115 68.928 2.36902 77.4075 3.44815L84.0215 4.29347C84.7726 4.3774 85.2935 4.41937 86.0263 4.47932H86.2262C89.6968 4.74311 92.4041 5.52848 96.6136 7.31504L100.853 9.16156C102.275 9.7877 103.731 10.3341 105.214 10.7982C111.005 12.5488 123.064 21.4097 126.764 26.5056L127.194 27.1591C129.127 30.0008 130.108 32.291 131.349 36.3677L131.743 37.7046L131.101 39.6411Z" fill="white"/>
<path d="M48.6211 5.15177L49.8324 4.59422C55.2509 1.70035 61.3131 0.19016 67.4698 0.199752C71.9797 0.199153 76.4521 1.0115 80.6676 2.59783L81.4429 2.78368C86.0582 3.80885 90.9339 8.38318 94.3136 11.1769C96.7 13.1434 98.9773 17.0702 100.558 20.1697C100.752 20.5414 100.946 20.9251 101.127 21.3088C101.533 22.1361 101.872 22.8675 102.133 23.4251C102.764 24.8579 103.247 26.3507 103.574 27.8795C104.095 29.8777 104.445 31.9149 104.622 33.9706C104.76 35.0258 104.895 36.1469 105.028 37.3339C105.767 43.9646 101.945 51.4945 100.903 54.1504C99.8616 56.8063 95.0949 62.5976 94.3378 63.6648C93.5807 64.7319 85.6221 69.8818 84.8892 70.5292C84.1563 71.1767 77.1607 73.4129 76.0402 73.7307C74.9197 74.0484 65.9314 74.7499 64.6474 74.7499C63.3633 74.7499 53.6058 71.8062 52.7579 71.3925C51.9099 70.9789 46.4225 67.9933 45.308 67.4477C44.1936 66.9022 39.3723 61.9621 38.803 61.2667C38.2337 60.5712 33.3156 53.2032 32.8673 52.2739C32.4191 51.3447 31.1714 47.196 30.6748 46.1229C30.1781 45.0497 29.8813 38.2212 29.8813 35.8291C29.908 33.5582 30.2732 31.304 30.9655 29.1385C31.6015 27.0402 32.3707 22.9874 35.072 18.599C36.0538 17.048 37.1447 15.5678 38.3366 14.1685C39.3015 12.9701 40.339 11.831 41.4438 10.7573C43.8786 8.28126 46.483 6.111 48.6211 5.15177Z" fill="#00D54B"/>
<path d="M86.0386 44.6951L85.8387 45.1388C85.5447 45.8188 85.211 46.4814 84.8394 47.1232C84.5123 47.7227 84.2337 48.3222 83.9248 48.8738C82.8406 51.11 79.8788 53.0704 78.0255 54.4493C76.1721 55.8282 72.2776 56.6615 70.7028 56.9793C69.128 57.297 66.6447 57.1891 63.1076 56.7814C59.5704 56.3737 56.0938 53.52 54.834 52.6747C53.5742 51.8294 51.1212 48.7119 50.6427 48.1903C50.1642 47.6687 48.4562 42.9985 48.1897 42.5668C47.9232 42.1352 47.584 38.2743 47.584 37.6628C47.584 37.0513 48.2563 32.387 48.4077 31.7276C48.9519 30.5061 49.575 29.3206 50.2732 28.1784C50.4246 27.8966 50.5882 27.6149 50.7517 27.3391L50.9152 27.0873C51.2362 26.5477 51.4846 26.152 51.5694 26.0501L51.8843 25.6904C52.4797 24.9039 53.1358 24.1642 53.8467 23.4782C54.1496 23.1365 54.3979 22.8787 54.5069 22.7168C55.1674 22.1552 55.8791 21.6555 56.6328 21.224C58.6108 19.9077 60.8123 18.9552 63.1318 18.4123C63.3915 18.3159 63.6564 18.2339 63.9252 18.1665C64.4703 18.0645 66.7719 17.9027 67.3897 17.7828C68.1097 17.7691 68.8289 17.8354 69.5338 17.9806C70.4044 18.0604 71.2684 18.1986 72.1201 18.3943C75.2123 19.092 78.0891 20.5172 80.5067 22.5491C82.9242 24.581 84.8114 27.1597 86.0083 30.0669C86.2565 30.5718 86.4592 31.0974 86.614 31.6376C87.4975 34.486 87.7048 37.4979 87.2197 40.4386C87.2197 40.5525 87.2197 40.6724 87.1773 40.7863C86.9798 42.1346 86.5967 43.4498 86.0386 44.6951Z" fill="black"/>
<path d="M57.4433 20.5768C58.0034 20.8147 58.5256 21.1317 58.9938 21.518L59.1755 21.6799C59.7466 22.1905 60.2187 22.8 60.5686 23.4784C60.7455 23.7765 60.88 24.0972 60.9683 24.4317V24.5696C61.2564 25.574 61.2814 26.6345 61.041 27.6511L61.1137 27.2554C61.0938 27.421 61.0635 27.5852 61.0228 27.747C60.8471 28.4401 60.5542 29.0989 60.1567 29.6954C60.1342 29.7301 60.114 29.7661 60.0961 29.8034C59.757 30.5048 58.8242 31.1163 58.2428 31.5599C57.9305 31.7639 57.5897 31.9215 57.2313 32.0276C56.049 32.4923 54.7515 32.5885 53.5124 32.3033L53.3307 32.2554L53.5427 32.2914C53.1894 32.2428 52.846 32.1397 52.5251 31.9856C51.359 31.5097 50.3649 30.697 49.6724 29.6535C49.6567 29.6296 49.6384 29.6075 49.6179 29.5875C49.5776 29.529 49.5431 29.4668 49.5149 29.4017C49.2186 28.9057 48.9943 28.3709 48.8487 27.813C48.8242 27.7513 48.8079 27.6869 48.8002 27.6211C48.5913 26.7115 48.5913 25.767 48.8002 24.8573L48.8729 24.5756L48.9092 24.4017C48.9509 24.335 49.0019 24.2744 49.0607 24.2218C49.4193 23.2103 50.0361 22.3078 50.8512 21.6019C51.6662 20.896 52.6518 20.4107 53.7123 20.1931L53.8637 20.1511L54.3967 20.0972H54.5542C54.7298 20.0972 54.8812 20.0672 54.9539 20.0492C55.2246 20.0506 55.4944 20.0787 55.7595 20.1331C55.9637 20.1579 56.166 20.1959 56.3652 20.247H56.4621L56.6438 20.283C56.8947 20.3427 57.1384 20.4291 57.3706 20.5408L57.4433 20.5768Z" fill="white"/>
<path d="M0 38.3705V39.1619C0.993315 43.0168 1.42335 45.0851 2.82247 47.1295C7.60128 54.1258 11.8713 59.1738 16.6077 62.0275L22.7675 65.5287L24.2272 66.332C29.1332 69.0179 33.1549 70.8284 37.0616 71.9375C38.2999 72.294 39.5603 72.5704 40.8349 72.7649L42.4703 73.0227L48.0365 73.9939C57.5093 75.6605 63.4813 76.2481 70.7858 75.7924C80.9431 75.1509 89.8284 73.2205 100.809 69.7972C108.241 67.4891 120.064 59.3177 125.691 53.1366C127.671 50.9604 129.27 49.3597 130.536 46.9856L131.348 45.4808C132.111 43.928 134.013 40.247 133.916 40.4748C134.152 39.9352 134.328 39.9233 134.522 39.4017L135 38.3645L134.824 37.6811C133.825 33.8142 132.686 30.9545 131.287 28.9041C126.514 21.8898 122.244 16.8178 117.514 13.9521L112.868 11.3023C111.821 10.7027 110.803 10.1032 110.137 9.7615L109.907 9.6356C105.007 6.94376 100.985 5.12123 97.0844 4.01212C95.8348 3.65336 94.5619 3.37895 93.2747 3.19078L91.6394 2.92699L86.0792 1.95577C76.6367 0.283116 70.6647 -0.310407 63.3662 0.151222C53.215 0.792706 44.3358 2.72915 33.3548 6.1464C25.9292 8.47253 14.1123 16.6799 8.47952 22.885C6.3819 25.1914 4.62605 27.7813 3.26461 30.5768L3.02234 31.0864C2.23496 32.801 0.975145 35.9305 0.932747 36.0444C0.696532 36.5719 0.478487 37.1175 0.278613 37.6391L0 38.3705ZM130.694 39.6415C129.561 43.1667 127.393 46.1642 122.65 51.398L119.84 54.4855C119.057 55.3323 118.319 56.2188 117.629 57.1414C115.206 60.4448 105.346 65.5886 97.575 68.4543C95.1085 69.3195 92.5715 69.9734 89.9919 70.4088L86.2185 71.0622L76.5277 72.7169C71.0341 73.7001 66.0555 73.5862 58.1574 72.633L50.4895 71.6618C49.7384 71.5718 49.2236 71.5299 48.4907 71.4699H48.2848C44.5962 71.1881 41.7677 70.3188 37.0858 68.2925L33.6758 66.7997C32.2343 66.2001 31.0411 65.7265 29.8842 65.3548L29.3089 65.175C23.5186 63.4304 11.4534 54.5995 7.74665 49.5215L7.3045 48.922C5.36632 46.0863 4.06411 44.1259 2.82853 40.0731V38.3705L3.43421 36.4221C4.52443 33.0468 6.57163 30.1271 10.9386 25.2171L14.5424 21.2303C15.463 20.1931 15.9839 19.5576 16.4987 18.8322C18.9214 15.5169 28.7698 10.355 36.5346 7.47733C38.7451 6.69742 41.0157 6.09593 43.3243 5.67878L45.426 5.31907L57.6002 3.23275C63.3359 2.20757 68.5024 2.37543 76.9819 3.44857L83.6444 4.29389C84.3954 4.37783 84.9103 4.42579 85.6431 4.47974H85.8491C89.3136 4.74953 92.027 5.5349 96.2365 7.32146L100.476 9.16798C101.897 9.79436 103.353 10.3388 104.837 10.7987C110.627 12.5493 122.68 21.4101 126.381 26.512L126.829 27.1475C128.768 29.9892 129.749 32.2734 130.984 36.3501L131.378 37.6931L130.694 39.6415Z" fill="black"/>
</svg>
